<?xml version="1.0" standalone="no"?>
<!DOCTYPE svg PUBLIC "-//W3C//DTD SVG 20010904//EN"
 "http://www.w3.org/TR/2001/REC-SVG-20010904/DTD/svg10.dtd">
<svg version="1.0" xmlns="http://www.w3.org/2000/svg"
 width="200.000000pt" height="200.000000pt" viewBox="0 0 200.000000 200.000000"
 preserveAspectRatio="xMidYMid meet">
<metadata>
Created by potrace 1.14, written by Peter Selinger 2001-2017
</metadata>
<g transform="translate(0.000000,200.000000) scale(0.100000,-0.100000)"
fill="#000000" stroke="none">
<path d="M760 1566 c-161 -28 -275 -134 -330 -306 -31 -95 -34 -123 -34 -255
-1 -139 5 -185 34 -275 29 -86 64 -146 118 -198 50 -49 83 -67 156 -89 124
-37 367 -1 365 55 -1 29 -44 107 -59 107 -8 0 -37 -8 -64 -18 -134 -50 -263 0
-324 126 -43 90 -56 156 -56 297 0 225 48 340 169 403 51 26 174 28 220 3 50
-27 64 -21 90 36 23 49 23 54 8 70 -37 41 -183 62 -293 44z"/>
<path d="M21 1558 c-21 -7 -21 -11 -21 -557 0 -624 -8 -569 88 -566 28 0 58 7
65 14 17 17 19 1075 1 1099 -13 17 -96 24 -133 10z"/>
<path d="M1289 1562 c-8 -3 -17 -10 -21 -16 -4 -6 -8 -253 -8 -548 0 -441 2
-539 14 -550 10 -11 58 -14 222 -13 288 2 334 11 416 87 58 53 81 116 82 223
1 99 -19 158 -72 211 -32 32 -113 74 -142 74 -31 0 -15 17 23 25 42 9 123 92
136 142 15 54 13 131 -4 190 -11 37 -28 62 -63 95 -76 71 -118 81 -363 83
-113 0 -212 -1 -220 -3z m406 -147 c57 -21 86 -67 90 -138 2 -59 -8 -90 -43
-129 -36 -40 -92 -54 -212 -53 l-105 0 0 165 c0 129 2 166 13 170 30 12 215 2
257 -15z m15 -468 c44 -20 60 -33 90 -77 21 -29 25 -47 25 -105 0 -82 -19
-121 -79 -163 -38 -26 -43 -27 -180 -27 l-141 0 -1 190 c0 105 1 193 2 196 2
3 58 5 126 3 87 -1 133 -6 158 -17z"/>
</g>
</svg>
