<?xml version="1.0" encoding="UTF-8" standalone="no"?>
<svg
   xmlns:dc="http://purl.org/dc/elements/1.1/"
   xmlns:cc="http://creativecommons.org/ns#"
   xmlns:rdf="http://www.w3.org/1999/02/22-rdf-syntax-ns#"
   xmlns:svg="http://www.w3.org/2000/svg"
   xmlns="http://www.w3.org/2000/svg"
   xmlns:sodipodi="http://sodipodi.sourceforge.net/DTD/sodipodi-0.dtd"
   xmlns:inkscape="http://www.inkscape.org/namespaces/inkscape"
   width="65.811996"
   height="65.811996"
   viewBox="0 0 65.812035 65.811998"
   version="1.1"
   id="svg272"
   sodipodi:docname="pypi.svg"
   inkscape:version="0.92.1 r">
  <metadata
     id="metadata278">
    <rdf:RDF>
      <cc:Work
         rdf:about="">
        <dc:format>image/svg+xml</dc:format>
        <dc:type
           rdf:resource="http://purl.org/dc/dcmitype/StillImage" />
        <dc:title></dc:title>
      </cc:Work>
    </rdf:RDF>
  </metadata>
  <defs
     id="defs276" />
  <sodipodi:namedview
     pagecolor="#ffffff"
     bordercolor="#666666"
     borderopacity="1"
     objecttolerance="10"
     gridtolerance="10"
     guidetolerance="10"
     inkscape:pageopacity="0"
     inkscape:pageshadow="2"
     inkscape:window-width="1920"
     inkscape:window-height="1015"
     id="namedview274"
     showgrid="false"
     inkscape:zoom="4.0689655"
     inkscape:cx="32.660236"
     inkscape:cy="29"
     inkscape:window-x="0"
     inkscape:window-y="0"
     inkscape:window-maximized="1"
     inkscape:current-layer="svg272" />
  <g
     id="g38"
     style="fill:#a29d86;stroke:#cccccc;stroke-width:0.214;stroke-linejoin:bevel"
     transform="translate(0,3.9059982)">
    <path
       d="m 18.93,18.826 9.323,3.394 V 33.177 L 18.93,29.783 Z"
       style="color:#000000;overflow:visible;fill:#e9e9ff"
       overflow="visible"
       id="path2"
       inkscape:connector-curvature="0" />
    <path
       d="m 9.47,22.27 v 10.957 l 9.46,-3.444 V 18.826 Z"
       style="color:#000000;overflow:visible;fill:#353564"
       overflow="visible"
       id="path4"
       inkscape:connector-curvature="0" />
    <path
       d="m 9.47,33.227 9.322,3.393 9.46,-3.443 -9.322,-3.394 z"
       style="color:#000000;overflow:visible;fill:#afafde"
       overflow="visible"
       id="path6"
       inkscape:connector-curvature="0" />
    <path
       d="m 9.47,22.27 9.322,3.393 9.46,-3.443 -9.322,-3.394 z"
       id="path8"
       inkscape:connector-curvature="0"
       style="fill:#f7f7f4" />
    <path
       d="M 18.792,25.663 V 36.62 l 9.46,-3.443 V 22.22 Z"
       id="path10"
       inkscape:connector-curvature="0"
       style="fill:#ffffff" />
    <path
       d="m 9.47,22.27 9.322,3.393 V 36.62 L 9.47,33.227 Z"
       id="path12"
       inkscape:connector-curvature="0"
       style="fill:#efeeea" />
    <path
       style="color:#000000;overflow:visible;fill:#e9e9ff"
       d="m 28.293,11.166 9.323,3.393 v 10.957 l -9.323,-3.393 z"
       overflow="visible"
       id="path14"
       inkscape:connector-curvature="0" />
    <path
       style="color:#000000;overflow:visible;fill:#353564"
       d="m 18.833,14.609 v 10.957 l 9.46,-3.443 V 11.166 Z"
       overflow="visible"
       id="path16"
       inkscape:connector-curvature="0" />
    <path
       style="color:#000000;overflow:visible;fill:#afafde"
       d="m 18.833,25.566 9.322,3.393 9.461,-3.443 -9.323,-3.393 z"
       overflow="visible"
       id="path18"
       inkscape:connector-curvature="0" />
    <path
       d="m 18.833,14.609 9.322,3.393 9.461,-3.443 -9.323,-3.393 z"
       id="path20"
       inkscape:connector-curvature="0"
       style="fill:#f7f7f4" />
    <path
       d="M 28.155,18.002 V 28.96 l 9.461,-3.443 V 14.559 Z"
       id="path22"
       inkscape:connector-curvature="0"
       style="fill:#ffffff" />
    <path
       d="m 18.833,14.609 9.322,3.393 V 28.96 l -9.322,-3.393 z"
       id="path24"
       inkscape:connector-curvature="0"
       style="fill:#efeeea" />
    <path
       d="m 9.567,33.297 9.322,3.393 V 47.647 L 9.567,44.254 Z"
       style="color:#000000;overflow:visible;fill:#e9e9ff"
       overflow="visible"
       id="path26"
       inkscape:connector-curvature="0" />
    <path
       d="m 0.106,36.74 v 10.957 l 9.46,-3.443 V 33.297 Z"
       style="color:#000000;overflow:visible;fill:#353564"
       overflow="visible"
       id="path28"
       inkscape:connector-curvature="0" />
    <path
       d="M 0.106,47.697 9.43,51.09 18.89,47.647 9.568,44.254 Z"
       style="color:#000000;overflow:visible;fill:#afafde"
       overflow="visible"
       id="path30"
       inkscape:connector-curvature="0" />
    <path
       d="m 0.106,36.74 9.323,3.393 9.46,-3.443 -9.322,-3.393 z"
       id="path32"
       inkscape:connector-curvature="0"
       style="fill:#f7f7f4" />
    <path
       d="M 9.429,40.133 V 51.09 l 9.46,-3.443 V 36.69 Z"
       id="path34"
       inkscape:connector-curvature="0"
       style="fill:#ffffff" />
    <path
       d="m 0.106,36.74 9.323,3.393 V 51.09 L 0.106,47.697 Z"
       id="path36"
       inkscape:connector-curvature="0"
       style="fill:#efeeea" />
  </g>
  <g
     id="g52"
     style="fill:#a29d86;stroke:#cccccc;stroke-width:0.214;stroke-linejoin:bevel"
     transform="translate(0,3.9059982)">
    <path
       style="color:#000000;overflow:visible;fill:#e9e9ff"
       d="m 18.93,36.702 9.323,3.393 V 51.052 L 18.93,47.659 Z"
       overflow="visible"
       id="path40"
       inkscape:connector-curvature="0" />
    <path
       style="color:#000000;overflow:visible;fill:#353564"
       d="m 9.47,40.145 v 10.957 l 9.46,-3.443 V 36.702 Z"
       overflow="visible"
       id="path42"
       inkscape:connector-curvature="0" />
    <path
       style="color:#000000;overflow:visible;fill:#afafde"
       d="m 9.47,51.102 9.322,3.393 9.46,-3.443 -9.322,-3.393 z"
       overflow="visible"
       id="path44"
       inkscape:connector-curvature="0" />
    <path
       d="m 9.47,40.145 9.322,3.393 9.46,-3.443 -9.322,-3.393 z"
       id="path46"
       inkscape:connector-curvature="0"
       style="fill:#f7f7f4" />
    <path
       d="m 18.792,43.538 v 10.957 l 9.46,-3.443 V 40.095 Z"
       id="path48"
       inkscape:connector-curvature="0"
       style="fill:#ffffff" />
    <path
       d="m 9.47,40.145 9.322,3.393 V 54.495 L 9.47,51.102 Z"
       id="path50"
       inkscape:connector-curvature="0"
       style="fill:#efeeea" />
  </g>
  <g
     id="g66"
     style="fill:#a29d86;stroke:#cccccc;stroke-width:0.214;stroke-linejoin:bevel"
     transform="translate(0,3.9059982)">
    <path
       d="m 18.93,25.636 9.323,3.393 V 39.986 L 18.93,36.593 Z"
       style="color:#000000;overflow:visible;fill:#e9e9ff"
       overflow="visible"
       id="path54"
       inkscape:connector-curvature="0" />
    <path
       d="m 9.47,29.08 v 10.956 l 9.46,-3.443 V 25.636 Z"
       style="color:#000000;overflow:visible;fill:#353564"
       overflow="visible"
       id="path56"
       inkscape:connector-curvature="0" />
    <path
       d="m 9.47,40.036 9.322,3.394 9.46,-3.444 -9.322,-3.393 z"
       style="color:#000000;overflow:visible;fill:#afafde"
       overflow="visible"
       id="path58"
       inkscape:connector-curvature="0" />
    <path
       d="m 9.47,29.08 9.322,3.393 9.46,-3.444 -9.322,-3.393 z"
       id="path60"
       inkscape:connector-curvature="0"
       style="fill:#f7f7f4" />
    <path
       d="M 18.792,32.473 V 43.43 l 9.46,-3.444 V 29.03 Z"
       id="path62"
       inkscape:connector-curvature="0"
       style="fill:#ffffff" />
    <path
       d="m 9.47,29.08 9.322,3.393 V 43.43 L 9.47,40.036 Z"
       id="path64"
       inkscape:connector-curvature="0"
       style="fill:#efeeea" />
  </g>
  <g
     id="g80"
     style="fill:#a29d86;stroke:#cccccc;stroke-width:0.214;stroke-linejoin:bevel"
     transform="translate(0,3.9059982)">
    <path
       style="color:#000000;overflow:visible;fill:#e9e9ff"
       d="m 56.383,29.892 9.323,3.393 v 10.957 l -9.323,-3.393 z"
       overflow="visible"
       id="path68"
       inkscape:connector-curvature="0" />
    <path
       style="color:#000000;overflow:visible;fill:#353564"
       d="m 46.923,33.335 v 10.957 l 9.46,-3.443 V 29.892 Z"
       overflow="visible"
       id="path70"
       inkscape:connector-curvature="0" />
    <path
       style="color:#000000;overflow:visible;fill:#afafde"
       d="m 46.923,44.292 9.322,3.394 9.46,-3.444 -9.322,-3.393 z"
       overflow="visible"
       id="path72"
       inkscape:connector-curvature="0" />
    <path
       d="m 46.923,33.335 9.322,3.394 9.46,-3.444 -9.322,-3.393 z"
       id="path74"
       inkscape:connector-curvature="0"
       style="fill:#f7f7f4" />
    <path
       d="m 56.245,36.729 v 10.957 l 9.46,-3.444 V 33.285 Z"
       id="path76"
       inkscape:connector-curvature="0"
       style="fill:#ffffff" />
    <path
       d="m 46.923,33.335 9.322,3.394 v 10.957 l -9.322,-3.394 z"
       id="path78"
       inkscape:connector-curvature="0"
       style="fill:#efeeea" />
  </g>
  <g
     transform="matrix(0.65177,0,0,0.65177,-1683.66,-509.369)"
     id="g98">
    <g
       id="g94"
       style="fill:#a29d86;stroke:#cccccc;stroke-width:0.32800001;stroke-linejoin:bevel">
      <path
         style="color:#000000;overflow:visible;fill:#e9e9ff"
         d="m 2655.349,838.594 14.303,5.206 v 16.811 l -14.303,-5.206 z"
         overflow="visible"
         id="path82"
         inkscape:connector-curvature="0" />
      <path
         style="color:#000000;overflow:visible;fill:#353564"
         d="m 2640.834,843.877 v 16.811 l 14.515,-5.283 v -16.81 z"
         overflow="visible"
         id="path84"
         inkscape:connector-curvature="0" />
      <path
         style="color:#000000;overflow:visible;fill:#afafde"
         d="m 2640.834,860.688 14.303,5.206 14.515,-5.283 -14.303,-5.206 z"
         overflow="visible"
         id="path86"
         inkscape:connector-curvature="0" />
      <path
         d="m 2640.834,843.877 14.303,5.206 14.515,-5.283 -14.303,-5.206 z"
         id="path88"
         inkscape:connector-curvature="0"
         style="fill:#f7f7f4" />
      <path
         d="m 2655.137,849.083 v 16.811 l 14.515,-5.283 v -16.81 z"
         id="path90"
         inkscape:connector-curvature="0"
         style="fill:#ffd242" />
      <path
         d="m 2640.834,843.877 14.303,5.206 v 16.811 l -14.303,-5.206 z"
         id="path92"
         inkscape:connector-curvature="0"
         style="fill:#efeeea" />
    </g>
    <circle
       transform="matrix(0.9397,-0.34202283,0,1,0,0)"
       cy="1823.899"
       cx="2835.218"
       r="2.967"
       id="circle96"
       style="fill:#ffffff" />
  </g>
  <g
     id="g112"
     style="fill:#a29d86;stroke:#cccccc;stroke-width:0.214;stroke-linejoin:bevel"
     transform="translate(0,3.9059982)">
    <path
       d="m 37.657,36.702 9.322,3.393 v 10.957 l -9.322,-3.393 z"
       style="color:#000000;overflow:visible;fill:#e9e9ff"
       overflow="visible"
       id="path100"
       inkscape:connector-curvature="0" />
    <path
       d="m 28.196,40.145 v 10.957 l 9.46,-3.443 V 36.702 Z"
       style="color:#000000;overflow:visible;fill:#353564"
       overflow="visible"
       id="path102"
       inkscape:connector-curvature="0" />
    <path
       d="m 28.196,51.102 9.323,3.393 9.46,-3.443 -9.322,-3.393 z"
       style="color:#000000;overflow:visible;fill:#afafde"
       overflow="visible"
       id="path104"
       inkscape:connector-curvature="0" />
    <path
       d="m 28.196,40.145 9.323,3.393 9.46,-3.443 -9.322,-3.393 z"
       id="path106"
       inkscape:connector-curvature="0"
       style="fill:#f7f7f4" />
    <path
       d="m 37.519,43.538 v 10.957 l 9.46,-3.443 V 40.095 Z"
       id="path108"
       inkscape:connector-curvature="0"
       style="fill:#ffd242" />
    <path
       d="m 28.196,40.145 9.323,3.393 v 10.957 l -9.323,-3.393 z"
       id="path110"
       inkscape:connector-curvature="0"
       style="fill:#efeeea" />
  </g>
  <g
     id="g126"
     style="fill:#a29d86;stroke:#cccccc;stroke-width:0.214;stroke-linejoin:bevel"
     transform="translate(0,3.9059982)">
    <path
       style="color:#000000;overflow:visible;fill:#e9e9ff"
       d="M 28.293,40.107 37.616,43.5 V 54.457 L 28.293,51.064 Z"
       overflow="visible"
       id="path114"
       inkscape:connector-curvature="0" />
    <path
       style="color:#000000;overflow:visible;fill:#353564"
       d="m 18.833,43.55 v 10.957 l 9.46,-3.443 V 40.107 Z"
       overflow="visible"
       id="path116"
       inkscape:connector-curvature="0" />
    <path
       style="color:#000000;overflow:visible;fill:#afafde"
       d="m 18.833,54.507 9.322,3.393 9.46,-3.443 -9.322,-3.393 z"
       overflow="visible"
       id="path118"
       inkscape:connector-curvature="0" />
    <path
       d="m 18.833,43.55 9.322,3.393 9.46,-3.443 -9.322,-3.393 z"
       id="path120"
       inkscape:connector-curvature="0"
       style="fill:#f7f7f4" />
    <path
       d="M 28.155,46.943 V 57.9 l 9.46,-3.443 V 43.5 Z"
       id="path122"
       inkscape:connector-curvature="0"
       style="fill:#ffffff" />
    <path
       d="m 18.833,43.55 9.322,3.393 V 57.9 l -9.322,-3.393 z"
       id="path124"
       inkscape:connector-curvature="0"
       style="fill:#efeeea" />
  </g>
  <g
     id="g140"
     style="fill:#a29d86;stroke:#cccccc;stroke-width:0.214;stroke-linejoin:bevel"
     transform="translate(0,3.9059982)">
    <path
       d="m 56.383,18.826 9.323,3.394 v 10.957 l -9.323,-3.394 z"
       style="color:#000000;overflow:visible;fill:#e9e9ff"
       overflow="visible"
       id="path128"
       inkscape:connector-curvature="0" />
    <path
       d="m 46.923,22.27 v 10.957 l 9.46,-3.444 V 18.826 Z"
       style="color:#000000;overflow:visible;fill:#353564"
       overflow="visible"
       id="path130"
       inkscape:connector-curvature="0" />
    <path
       d="m 46.923,33.227 9.322,3.393 9.46,-3.443 -9.322,-3.394 z"
       style="color:#000000;overflow:visible;fill:#afafde"
       overflow="visible"
       id="path132"
       inkscape:connector-curvature="0" />
    <path
       d="m 46.923,22.27 9.322,3.393 9.46,-3.443 -9.322,-3.394 z"
       id="path134"
       inkscape:connector-curvature="0"
       style="fill:#f7f7f4" />
    <path
       d="M 56.245,25.663 V 36.62 l 9.46,-3.443 V 22.22 Z"
       id="path136"
       inkscape:connector-curvature="0"
       style="fill:#ffd242" />
    <path
       d="m 46.923,22.27 9.322,3.393 V 36.62 l -9.322,-3.393 z"
       id="path138"
       inkscape:connector-curvature="0"
       style="fill:#efeeea" />
  </g>
  <g
     id="g154"
     style="fill:#a29d86;stroke:#cccccc;stroke-width:0.214;stroke-linejoin:bevel"
     transform="translate(0,3.9059982)">
    <path
       style="color:#000000;overflow:visible;fill:#e9e9ff"
       d="m 56.383,7.76 9.323,3.394 V 22.11 l -9.323,-3.393 z"
       overflow="visible"
       id="path142"
       inkscape:connector-curvature="0" />
    <path
       style="color:#000000;overflow:visible;fill:#353564"
       d="m 46.923,11.204 v 10.957 l 9.46,-3.443 V 7.76 Z"
       overflow="visible"
       id="path144"
       inkscape:connector-curvature="0" />
    <path
       style="color:#000000;overflow:visible;fill:#afafde"
       d="m 46.923,22.161 9.322,3.393 9.46,-3.443 -9.322,-3.393 z"
       overflow="visible"
       id="path146"
       inkscape:connector-curvature="0" />
    <path
       d="m 46.923,11.204 9.322,3.393 9.46,-3.443 -9.322,-3.393 z"
       id="path148"
       inkscape:connector-curvature="0"
       style="fill:#ffc91d" />
    <path
       d="m 56.245,14.597 v 10.957 l 9.46,-3.443 V 11.154 Z"
       id="path150"
       inkscape:connector-curvature="0"
       style="fill:#ffd242" />
    <path
       d="m 46.923,11.204 9.322,3.393 v 10.957 l -9.322,-3.393 z"
       id="path152"
       inkscape:connector-curvature="0"
       style="fill:#efeeea" />
  </g>
  <g
     id="g168"
     style="fill:#a29d86;stroke:#cccccc;stroke-width:0.214;stroke-linejoin:bevel"
     transform="translate(0,3.9059982)">
    <path
       style="color:#000000;overflow:visible;fill:#e9e9ff"
       d="m 47.02,22.231 9.322,3.393 V 36.581 L 47.02,33.188 Z"
       overflow="visible"
       id="path156"
       inkscape:connector-curvature="0" />
    <path
       style="color:#000000;overflow:visible;fill:#353564"
       d="m 37.56,25.675 v 10.957 l 9.46,-3.444 V 22.231 Z"
       overflow="visible"
       id="path158"
       inkscape:connector-curvature="0" />
    <path
       style="color:#000000;overflow:visible;fill:#afafde"
       d="m 37.56,36.632 9.322,3.393 9.46,-3.444 -9.322,-3.393 z"
       overflow="visible"
       id="path160"
       inkscape:connector-curvature="0" />
    <path
       d="m 37.56,25.675 9.322,3.393 9.46,-3.444 -9.322,-3.393 z"
       id="path162"
       inkscape:connector-curvature="0"
       style="fill:#f7f7f4" />
    <path
       d="m 46.882,29.068 v 10.957 l 9.46,-3.444 V 25.624 Z"
       id="path164"
       inkscape:connector-curvature="0"
       style="fill:#ffd242" />
    <path
       d="m 37.56,25.675 9.322,3.393 v 10.957 l -9.323,-3.393 z"
       id="path166"
       inkscape:connector-curvature="0"
       style="fill:#efeeea" />
  </g>
  <g
     id="g182"
     style="fill:#a29d86;stroke:#cccccc;stroke-width:0.214;stroke-linejoin:bevel"
     transform="translate(0,3.9059982)">
    <path
       d="m 47.02,11.166 9.322,3.393 V 25.516 L 47.02,22.123 Z"
       style="color:#000000;overflow:visible;fill:#e9e9ff"
       overflow="visible"
       id="path170"
       inkscape:connector-curvature="0" />
    <path
       d="m 37.56,14.609 v 10.957 l 9.46,-3.443 V 11.166 Z"
       style="color:#000000;overflow:visible;fill:#353564"
       overflow="visible"
       id="path172"
       inkscape:connector-curvature="0" />
    <path
       d="m 37.56,25.566 9.322,3.393 9.46,-3.443 -9.322,-3.393 z"
       style="color:#000000;overflow:visible;fill:#afafde"
       overflow="visible"
       id="path174"
       inkscape:connector-curvature="0" />
    <path
       d="m 37.56,14.609 9.322,3.393 9.46,-3.443 -9.322,-3.393 z"
       id="path176"
       inkscape:connector-curvature="0"
       style="fill:#f7f7f4" />
    <path
       d="M 46.882,18.002 V 28.96 l 9.46,-3.443 V 14.559 Z"
       id="path178"
       inkscape:connector-curvature="0"
       style="fill:#3775a9" />
    <path
       d="m 37.56,14.609 9.322,3.393 V 28.96 l -9.323,-3.393 z"
       id="path180"
       inkscape:connector-curvature="0"
       style="fill:#efeeea" />
  </g>
  <g
     id="g196"
     style="fill:#a29d86;stroke:#cccccc;stroke-width:0.214;stroke-linejoin:bevel"
     transform="translate(0,3.9059982)">
    <path
       style="color:#000000;overflow:visible;fill:#e9e9ff"
       d="m 47.02,0.1 9.322,3.393 V 14.45 L 47.02,11.057 Z"
       overflow="visible"
       id="path184"
       inkscape:connector-curvature="0" />
    <path
       style="color:#000000;overflow:visible;fill:#353564"
       d="M 37.56,3.543 V 14.5 l 9.46,-3.443 V 0.1 Z"
       overflow="visible"
       id="path186"
       inkscape:connector-curvature="0" />
    <path
       style="color:#000000;overflow:visible;fill:#afafde"
       d="m 37.56,14.5 9.322,3.393 9.46,-3.443 -9.322,-3.393 z"
       overflow="visible"
       id="path188"
       inkscape:connector-curvature="0" />
    <path
       d="M 37.56,3.543 46.882,6.936 56.342,3.493 47.02,0.1 Z"
       id="path190"
       inkscape:connector-curvature="0"
       style="fill:#2f6491" />
    <path
       d="m 46.882,6.936 v 10.957 l 9.46,-3.443 V 3.493 Z"
       id="path192"
       inkscape:connector-curvature="0"
       style="fill:#3775a9" />
    <path
       d="m 37.56,3.543 9.322,3.393 V 17.893 L 37.559,14.5 Z"
       id="path194"
       inkscape:connector-curvature="0"
       style="fill:#efeeea" />
  </g>
  <g
     id="g210"
     style="fill:#a29d86;stroke:#cccccc;stroke-width:0.214;stroke-linejoin:bevel"
     transform="translate(0,3.9059982)">
    <path
       d="m 37.657,25.636 9.322,3.393 v 10.957 l -9.322,-3.393 z"
       style="color:#000000;overflow:visible;fill:#e9e9ff"
       overflow="visible"
       id="path198"
       inkscape:connector-curvature="0" />
    <path
       d="m 28.196,29.08 v 10.956 l 9.46,-3.443 V 25.636 Z"
       style="color:#000000;overflow:visible;fill:#353564"
       overflow="visible"
       id="path200"
       inkscape:connector-curvature="0" />
    <path
       d="m 28.196,40.036 9.323,3.394 9.46,-3.444 -9.322,-3.393 z"
       style="color:#000000;overflow:visible;fill:#afafde"
       overflow="visible"
       id="path202"
       inkscape:connector-curvature="0" />
    <path
       d="m 28.196,29.08 9.323,3.393 9.46,-3.444 -9.322,-3.393 z"
       id="path204"
       inkscape:connector-curvature="0"
       style="fill:#f7f7f4" />
    <path
       d="M 37.519,32.473 V 43.43 l 9.46,-3.444 V 29.03 Z"
       id="path206"
       inkscape:connector-curvature="0"
       style="fill:#ffd242" />
    <path
       d="m 28.196,29.08 9.323,3.393 V 43.43 l -9.323,-3.394 z"
       id="path208"
       inkscape:connector-curvature="0"
       style="fill:#efeeea" />
  </g>
  <g
     id="g224"
     style="fill:#a29d86;stroke:#cccccc;stroke-width:0.214;stroke-linejoin:bevel"
     transform="translate(0,3.9059982)">
    <path
       style="color:#000000;overflow:visible;fill:#e9e9ff"
       d="m 37.657,14.57 9.322,3.394 V 28.92 l -9.322,-3.394 z"
       overflow="visible"
       id="path212"
       inkscape:connector-curvature="0" />
    <path
       style="color:#000000;overflow:visible;fill:#353564"
       d="M 28.196,18.014 V 28.97 l 9.46,-3.444 V 14.57 Z"
       overflow="visible"
       id="path214"
       inkscape:connector-curvature="0" />
    <path
       style="color:#000000;overflow:visible;fill:#afafde"
       d="m 28.196,28.97 9.323,3.394 9.46,-3.443 -9.322,-3.394 z"
       overflow="visible"
       id="path216"
       inkscape:connector-curvature="0" />
    <path
       d="m 28.196,18.014 9.323,3.393 9.46,-3.443 -9.322,-3.394 z"
       id="path218"
       inkscape:connector-curvature="0"
       style="fill:#f7f7f4" />
    <path
       d="m 37.519,21.407 v 10.957 l 9.46,-3.443 V 17.964 Z"
       id="path220"
       inkscape:connector-curvature="0"
       style="fill:#3775a9" />
    <path
       d="m 28.196,18.014 9.323,3.393 v 10.957 l -9.323,-3.393 z"
       id="path222"
       inkscape:connector-curvature="0"
       style="fill:#efeeea" />
  </g>
  <g
     id="g238"
     style="fill:#a29d86;stroke:#cccccc;stroke-width:0.214;stroke-linejoin:bevel"
     transform="translate(0,3.9059982)">
    <path
       style="color:#000000;overflow:visible;fill:#e9e9ff"
       d="m 28.293,29.04 9.323,3.394 v 10.957 l -9.323,-3.393 z"
       overflow="visible"
       id="path226"
       inkscape:connector-curvature="0" />
    <path
       style="color:#000000;overflow:visible;fill:#353564"
       d="m 18.833,32.484 v 10.957 l 9.46,-3.443 V 29.04 Z"
       overflow="visible"
       id="path228"
       inkscape:connector-curvature="0" />
    <path
       style="color:#000000;overflow:visible;fill:#afafde"
       d="m 18.833,43.441 9.322,3.393 9.46,-3.443 -9.322,-3.393 z"
       overflow="visible"
       id="path230"
       inkscape:connector-curvature="0" />
    <path
       d="m 18.833,32.484 9.322,3.393 9.46,-3.443 -9.322,-3.393 z"
       id="path232"
       inkscape:connector-curvature="0"
       style="fill:#f7f7f4" />
    <path
       d="m 28.155,35.877 v 10.957 l 9.46,-3.443 V 32.434 Z"
       id="path234"
       inkscape:connector-curvature="0"
       style="fill:#3775a9" />
    <path
       d="m 18.833,32.484 9.322,3.393 v 10.957 l -9.322,-3.393 z"
       id="path236"
       inkscape:connector-curvature="0"
       style="fill:#2f6491" />
  </g>
  <g
     id="g252"
     style="fill:#a29d86;stroke:#cccccc;stroke-width:0.214;stroke-linejoin:bevel"
     transform="translate(0,3.9059982)">
    <path
       d="m 28.293,17.975 9.323,3.393 v 10.957 l -9.323,-3.393 z"
       style="color:#000000;overflow:visible;fill:#e9e9ff"
       overflow="visible"
       id="path240"
       inkscape:connector-curvature="0" />
    <path
       d="m 18.833,21.419 v 10.957 l 9.46,-3.444 V 17.975 Z"
       style="color:#000000;overflow:visible;fill:#353564"
       overflow="visible"
       id="path242"
       inkscape:connector-curvature="0" />
    <path
       d="m 18.833,32.376 9.322,3.393 9.46,-3.444 -9.322,-3.393 z"
       style="color:#000000;overflow:visible;fill:#afafde"
       overflow="visible"
       id="path244"
       inkscape:connector-curvature="0" />
    <path
       d="m 18.833,21.419 9.322,3.393 9.46,-3.444 -9.322,-3.393 z"
       id="path246"
       inkscape:connector-curvature="0"
       style="fill:#2f6491" />
    <path
       d="m 28.155,24.812 v 10.957 l 9.46,-3.444 V 21.368 Z"
       id="path248"
       inkscape:connector-curvature="0"
       style="fill:#3775a9" />
    <path
       d="m 18.833,21.419 9.322,3.393 v 10.957 l -9.322,-3.393 z"
       id="path250"
       inkscape:connector-curvature="0"
       style="fill:#2f6491" />
  </g>
  <g
     transform="matrix(0.65177,0,0,0.65177,-1683.66,-509.369)"
     id="g270">
    <g
       id="g266"
       style="fill:#a29d86;stroke:#cccccc;stroke-width:0.32800001;stroke-linejoin:bevel">
      <path
         style="color:#000000;overflow:visible;fill:#e9e9ff"
         d="m 2640.983,792.885 14.304,5.206 v 16.811 l -14.304,-5.206 z"
         overflow="visible"
         id="path254"
         inkscape:connector-curvature="0" />
      <path
         style="color:#000000;overflow:visible;fill:#353564"
         d="m 2626.468,798.168 v 16.811 l 14.515,-5.283 v -16.811 z"
         overflow="visible"
         id="path256"
         inkscape:connector-curvature="0" />
      <path
         style="color:#000000;overflow:visible;fill:#afafde"
         d="m 2626.468,814.979 14.304,5.206 14.515,-5.283 -14.304,-5.206 z"
         overflow="visible"
         id="path258"
         inkscape:connector-curvature="0" />
      <path
         d="m 2626.468,798.168 14.304,5.206 14.515,-5.283 -14.304,-5.206 z"
         id="path260"
         inkscape:connector-curvature="0"
         style="fill:#2f6491" />
      <path
         d="m 2640.772,803.374 v 16.811 l 14.515,-5.283 v -16.811 z"
         id="path262"
         inkscape:connector-curvature="0"
         style="fill:#3775a9" />
      <path
         d="m 2626.468,798.168 14.304,5.206 v 16.811 l -14.304,-5.206 z"
         id="path264"
         inkscape:connector-curvature="0"
         style="fill:#2f6491" />
    </g>
    <circle
       transform="matrix(0.9397,-0.34202283,0,1,0,0)"
       cy="1772.922"
       cx="2816.0171"
       r="2.967"
       id="circle268"
       style="fill:#ffffff" />
  </g>
</svg>
